<?xml version="1.0" encoding="utf-8"?>
<!-- Generator: Adobe Illustrator 21.1.0, SVG Export Plug-In . SVG Version: 6.00 Build 0)  -->
<svg version="1.1" id="Layer_3" xmlns="http://www.w3.org/2000/svg" xmlns:xlink="http://www.w3.org/1999/xlink" x="0px" y="0px"
	 viewBox="0 0 797.6 530.7" style="enable-background:new 0 0 797.6 530.7;" xml:space="preserve">
<title>bison_1</title>
<path d="M726.5,401.5C726.5,401.5,726.5,401.5,726.5,401.5C726.4,401.5,726.4,401.5,726.5,401.5z"/>
<path d="M793.3,232.2c-0.9-2.4,1-3.1,1.7-9c8.6-13.2-37.3-30.5-37.7-30.5s-3.4-22-11.9-21c-3.4,0.2,3.9,15,1.5,21.3
	c-16.6,0.7-62.1-16.4-67.2-19.4c-14.2-8.4-24.9-16.9-34.3-30.8c-11-16.3-11.1-35.2-17.3-51.4c-14.3-37.4-32.3-68.6-85-78.8
	c-13.7-2.7-32.3-0.3-45.4-3.5C479.6,4.7,456.7-2,430,0.6c-35.2,3.6-69.7,12.1-102.8,24.7C307,28.7,294,45.7,275.2,52
	c-20.5,7.4-40.2,12.8-60.3,18.3c-10.4,2.8-26.7,9.6-37.9,9.2c-22-1.8-41,11.2-62.2,13.8c-30.9,0.1-53,12.8-65.3,21.7
	c-14.2,10.2-20.1,25.2-22.1,59.4c-1.4,9.6-9.7,37.9-9,37.2c-5.4,7.1-6.4,14.1-6.5,22.6c-2,11.6,1,22.6,1.9,34.3
	c1.1,3.3,2.1,7.3,1.7,6.9c0.8,16.5,2.6,38.3,2.5,38.8c1.4,1.7,1.5,3.6,1.8,5.8c-1.1,3.2-1.8,20.4-1.8,20.4s9.3-8.2,9.1-7.4
	c5.9-4.2,7.9-12.2,11.4-17.1c9.1-16.8,9.1-35.9,12.3-39.8c7.1-6.2,7.1-16.2,7.2-24.9c-0.3-20.4-22.4-52.1-20.5-73.1
	c1.1-12.4-1.7-17.2,6.3-33c2.8-2.5,5.7-4.8,8.9-6.9c0.3,0-14.1,14.3-4.1,65.1c3.3,25.2,28.7,78.6,29.9,103.6
	c-4,20.4-19.3,28.7-28.8,42.8c-2.5,8.9-10.3,48-12.4,58.8c-1.8,9.3-13.1,36.5-22.7,55c-9,2.8-15.4,16.9-14.6,18.3
	c1.8,3.2,9.1-3,11,0.4c0.5,0.9-2.9,2.8-3.2,3.7c-2,5.6-8.6,21.1,14.5,33.2c21.2,11.1,21.5-12.5,21.1-12.3s-3.3-18.2,4-42.6
	c3-10,6-23.8,13.9-38.8c7.3-13.8,19.1-28,28.2-40.7c3-2.2,9.3-9,14.8-15c-1,8-2.4,19.6-2.4,24.6c0,7.5,2.2,11.1,5.3,15.4
	c9.6,8.5,11.5,13.8,19,27.8c12.9,16.1,21.1,37.3,31.3,55.4c8.6,11.4,4.6,19,9.7,23.4c6.9,5.9,20,13.7,29.4,12.8
	c20.5-2,19.9-6.1,19.1-13.2c-1.9-8.2-9.6-11.6-22-22.2c-11.1-9.5-21.1-24.1-26.1-33.9c-14.9-31.9-13.9-55.3-11.5-81.8
	c1.9-21.2-6.5-39.5,2.5-71.3c3.6-2.6,9.1-5.4,11.6-4.7c5.9,7.1,15.3,17.1,16.2,18c1.6,1.6,21,22.5,35.6,33.8
	c6.7,5.2,4,12.7,10.3,18.4c7.6,1.5,15.5,11.5,21.5,6.5c4-4-5-12-7-19.4c-0.9-2.6-0.1-8.7,1.7-8c14.6,6,75.4,1.1,114.7-5.6
	c10.2,2.1,19.6,4.5,26.8,6.5c1.8,0.5,4.8,0.5,6.8,1.5c11,8-10,16-13.1,24.7c-7.3,8.2-8.1,19.1-9.1,30c-1.8,12.3,3.2,20.3,9.2,30.3
	c2,2,14.4,15.3,14.6,15.8c6.4,1.2,10.4-3.8,16.4-1.9c4.8,4.3-14.2,42.5-8.9,57.4c1.3,3.7,21.4,12.5,21.8,12.5
	c22.5,1,29.4-2.7,31.4-7.3c1.5-3.5-13.1-15-16.3-24.3c-5-14.7-2.5-26.4-2.5-32.6c3.8-5.2,3.9-5.2,10.6-16c2.9-6.6,5.9-12.6,5.9-19.6
	c1,1,3,3,4,3c9.4-1.6,18.7,1.7,18.7,1.7l16.2,10.1l16,6.3c0,0,20.5,1.5,29.7,7.6c2.5-0.5,5.7,2.7,7,6.2c9.4,22.5,3.5,23.8,2.7,32
	c-0.7,6.6,5.7,6.7,7.7,11.7c3,7.7,0.1,15.2,10.3,23.7c6,5,13.8,3.7,20.3,5.5c2.5,0.7,21.2-0.5,24-2.7c5.2-3.9-2.1-20.3-3.6-24.6
	c-2-5.9-17.5-18-17.8-22.8c-1.1-20.7-24.1-28.6-28-48.9c0.4-6.4,3.4-27.2-8.2-41c0,0,27.1-0.6,30.1-10.9c5.2,3,4.6,7.5,15.8,4.9
	c9-2.1,12.5-0.4,19.7,6.3c5.2,5.7,39.5,54.6,64.8,54.8c25.3,0.2,30.6-8.2,30.6-8.2l4.4-14.3c0,0,22.5-10.9,28-17.8
	c11.6-14.4,3-19.1,4.5-29.9c1.4-17.9,6.8-16.2,7.7-26.2c0.7-7.8-3.4-12.6-2-19.6c1.5-7.9,6.8-7.3,10.4-10.6
	c3.3-6.9,8-15.6,14.2-22.5c2.2-2.4,1.8-8,3.6-11.4c8.2-15.4,1.1-17.1,0.3-31.5c-0.2-2.8,0.6-4.4,1.7-5.3
	C789.7,248,800.8,245.2,793.3,232.2z M641.8,274.3L641.8,274.3c-42.8-5.7-31.8-48.9-15.8-74.1c4.8-7.6,23-28.5,30.2-27.7
	c4.1,0.4-3,8.8-3,8.7c-35.7,57-8.2,69.8,5.6,69.6C669.5,250.6,652.8,275.8,641.8,274.3z"/>
</svg>
