<svg id="Layer_1" data-name="Layer 1" xmlns="http://www.w3.org/2000/svg" xmlns:xlink="http://www.w3.org/1999/xlink" viewBox="0 0 792 612">
  <defs>
    <style>
      .cls-1 {
        fill: url(#linear-gradient);
      }

      .cls-2 {
        fill: #fab198;
      }

      .cls-3 {
        fill: #abcee2;
      }

      .cls-4 {
        fill: #1061a3;
      }

      .cls-5 {
        fill: #9357a9;
      }

      .cls-6 {
        fill: #f0cf61;
      }

      .cls-7 {
        fill: #e44a66;
      }

      .cls-8 {
        fill: #fedccc;
        fill-opacity: 0.61;
      }

      .cls-9 {
        fill: #f79e7c;
      }

      .cls-10 {
        fill: #707c26;
      }

      .cls-11 {
        fill: #674b7c;
      }

      .cls-12 {
        fill: #fec8be;
      }

      .cls-13 {
        fill: #f96;
      }

      .cls-14 {
        fill: url(#linear-gradient-2);
      }

      .cls-15 {
        fill: #fbfe56;
      }

      .cls-16 {
        fill: #b1fdeb;
      }

      .cls-17 {
        fill: #fdf06f;
      }

      .cls-18 {
        fill: #008e8f;
      }

      .cls-19 {
        fill: #00b28b;
      }

      .cls-20 {
        fill: #1fde91;
      }

      .cls-21 {
        fill: #5a3c20;
      }

      .cls-22 {
        fill: #ef303b;
      }

      .cls-23 {
        fill: #f56356;
      }

      .cls-24 {
        fill: #fcb903;
      }

      .cls-25 {
        fill: #17c37b;
      }

      .cls-26 {
        fill: #c886a2;
      }

      .cls-27 {
        fill: #bedfd4;
      }

      .cls-28 {
        fill: #776ea7;
      }

      .cls-29 {
        fill: #d9ac32;
      }

      .cls-30 {
        fill: #cf2f89;
      }

      .cls-31 {
        fill: #00fdff;
      }
    </style>
    <linearGradient id="linear-gradient" x1="835.42" y1="621.54" x2="558.42" y2="264.54" gradientTransform="matrix(1, 0, 0, -1, 0, 614)" gradientUnits="userSpaceOnUse">
      <stop offset="0" stop-color="#00e08f"/>
      <stop offset="1" stop-color="#28b778"/>
    </linearGradient>
    <linearGradient id="linear-gradient-2" x1="315.05" y1="274.24" x2="626.88" y2="632.9" gradientTransform="matrix(1, 0, 0, -1, 0, 614)" gradientUnits="userSpaceOnUse">
      <stop offset="0" stop-color="#f94900"/>
      <stop offset="1" stop-color="#ff6a5d"/>
    </linearGradient>
  </defs>
  <title>colors</title>
  <g id="Layer_1-2" data-name="Layer 1">
    <path class="cls-1" d="M789-26.3c-77.1-22-148.4,1.2-203.7,58.6-15.6,16.2-46.6,47.3-24.4,68.4,24,22.7,55.6-20.6,80.2-8.4,3.2,1.6-14.3,75-16.3,79.3-16.8,36.6-48.6,57.7-56.3,99.7-19.3,104.6,84.6,103.7,159,84.1,75.3-20,113.5-64.7,122.5-141.2,8.1-68.6,24.2-175.1-38.8-222.3"/>
    <path class="cls-2" d="M567.7,560.2c0-68.9-155.5-8.5-110.1,61.2,23.5,36,118.8,18.8,118.8-30.3"/>
    <path class="cls-3" d="M842.2,446.4c-34.3-34.3-102.9-29.3-142.1-7.3-26.6,14.9-36.1,32.6-44.3,61-6.6,23.1-25.1,66.9-23.4,90.8,4.4,58.6,86.7,56.8,130.7,50.6,74.1-10.5,103.6-71.2,103.6-140.8"/>
    <path class="cls-4" d="M501.5-22.4c-45.3,6.1-142.6,78.5-86,128.7C480.6,164.1,533.6,42,533.6-4.1"/>
    <path class="cls-4" d="M315.5,436.9c47.11-17.76,80.6-56.3,73.1-98-12.3-67.5-94.4-46.7-137.6-24.4-65.4,33.8-137.9,106.9-150.1,182.7-16.2,100.4,115,63.08,137.3,41.5S268.39,454.66,315.5,436.9Z"/>
    <path class="cls-5" d="M847.7,285c-76.9-12.1-186.4,1.5-240,63.9-8.6,10-27.3,33.1-23.7,47.5,2.7,10.9,18.4,11.3,23,20.6,19.6,40.1-26.2,60.4-54.7,83.1-38.2,30.4-42.4,63.9-4.1,103.3,30,30.8,86.2,32.7,109.5-7.3,25.1-43.2,2.7-85.4,59.7-110.5,48.2-21.2,111.3-32.9,111.3-101.5"/>
    <path class="cls-6" d="M279-30.7c-95.3,0-165.7,112.6-180.9,198.5-5.8,32.7,5.8,19.8,14.3,45.4,7.6,22.7.7,50.5,18.3,69,26.9,28.3,84.4,18.7,116.6,6.9,50.3-18.4,53.2-43.2,86.9-78.9,25.7-27.3,87.1-42.8,64.1-89.5C389.7,103.1,366.8,101,363,79c-3.3-18.9,12.8-35.7,18.9-52.1,21.3-57.3-31.8-70.9-84.2-59.5"/>
    <path class="cls-7" d="M18.9-30.7C-13.1-17.9-40.9,0-23.7,34-9.2,62.9,7.5,46.4-11,80.6c-7.6,14.1-58,47.4-38.8,69.2,10.6,12,29.6-8.6,39.7,3.4,6.3,7.5-4.5,22.5.4,28.2,19.9,23.5,43.1,25.9,71-7.3,11.2-13.4,9.3-27.5,18.7-41,11.8-16.8,33.5-31.6,48.8-44.8,12.5-10.8,32.1-20.3,38.5-37,11-28.3,1.1-23.2-13-39.2-2.9-3.3-27.6-25.9-28.4-26.5-17.8-13.2-25.6-16.3-49.2-16.3"/>
    <path class="cls-8" d="M719.5,9.5C695.3,23.3,671.2,24,647.1,41.8c-29.7,21.9-61.5,49.5-82.5,80.3-21.7,31.8-6,50.8-13.1,84.6-8.9,42.3-39.2,29.9-72.6,36.3-43.2,8.3-45.2,32.9-65.3,64.6-19.8,31.2-53.7,59.3-80.4,84.4-26,24.4-146.7,123.7-39.7,105.3,12.3-2.1,8.3-19.7,24.2-10.2,7.4,4.5.9,22.7,6.6,29.4,26.1,30,41.9-2.3,52.8-26.8,16.5-36.9,23.5-49.2,62.1-66.1,14.8-6.5,73.7-54.4,83-48.7,32.8,20.4-28.8,137.6,71.1,104.5,79.3-26.3,12.8-140.3,15.2-189.6,2.2-43.5,39.3-76.5,44.9-121.2,6.4-51.5,33.4-63.7,77.2-89.3,28-16.3,94.9-49.7,69-90.7C773.8-52.1,744.1-4.5,719.5,9.5Z"/>
    <path class="cls-9" d="M140-24.1C118.9-19.9,3.2,61.8,21.2,88.3,46.7,125.7,119,25,133.5,39.5c-.9-.9-65.8,85.9-57.1,88,20.8,5.2,101.9-74.5,117-89.1C253.2-19.2,212.1-38.7,140-24.1Z"/>
    <path class="cls-10" d="M397.2-21C338.9-6.4,271.8,37.9,226.8,76.5,212,89.2,181.4,115.8,177.9,136c-5.4,31.1,23.2,28.9,39.2,5.1-16.4,49.6-75,119-121.4,143.1-19.6,10.1-32.5,14.2-28.9-17.4C69.4,243.9,91,243.4,98.3,226c6.4-15.2,4.7-41.7-16.8-40.5-16.6.9-33.7,35.4-41.4,48.2C13.7,278.2,16,350,86.8,335.8c55.3-11.1,101.5-73,138.5-111.2,16-16.6,48-40.3,48.4-65.3.5-33-22.5-20.1-36.7-41.3-24.1-36.3,61.4-62.4,92.8-77.7,20.8-10.1,68.1-23.4,80.6-42.6C421.7-19.8,422.3-27.2,397.2-21Z"/>
    <path class="cls-11" d="M811.2,242.9c-9.3,23-42.3,41.2-59.9,56.9-30.4,27.3-55,57.9-80.3,89.9-17.7,22.4-138,161.7-95.1,171.5,43.9,10,142.1-120.3,169.9-151,25.8-28.5,49.9-58.5,65-94.2,5.6-13.3,19.3-39.3,15-53.9C825,259.1,812.8,239,811.2,242.9Z"/>
    <path class="cls-12" d="M27.2-15.4C5.8,4.1-35.5,39.1-42.6,69.2c-10.2,43.7,27.4,14.3,48.7-4C21.5,52,66.4,13.6,68.3-10.8,70.5-39.5,46.9-33.5,27.2-15.4Z"/>
    <path class="cls-13" d="M-5.7,552.3c-26.52,66.92-12,73.1,4,78.5,19.9,6.7,76.3-60.2,88.2-72.5C153.6,489.7,230.3,421,281.2,339.2c14.1-22.6,71.9-110.3,28.7-120.7-34-8.2-93.5,62.7-111,82.1C159,345,20.82,485.38-5.7,552.3Z"/>
    <path class="cls-14" d="M496.7-22c-38.46,30.86-55.6,44.4-52,59.7,6.5,28.1,42.5-8.4,51.3,7.4,16.2,29.1-148.9,106.7-149.1,150-.2,41.1,116.9-64.7,118.5-53.8,4.8,33.8-197.6,173.1-145.6,206.5,33.6,21.6,101-69.8,118.6-84.9,46.8-40.1,21.3,2.5,62.7,3.3,36.4.7,73.7-64.4,86.5-92,19-41.3-11.3-75.8,6.2-114.8,10.2-22.9,59.2-47.1,59-74.2C652.5-51.5,535.16-52.86,496.7-22Z"/>
    <path class="cls-15" d="M33.9,143.8C-6.7,184.4-84.4,261.3-87.7,323.1-92.5,412.4-2.6,296.4-.9,298c11.8,11.8-132.3,151.6-81.6,185.1,28.3,18.7,214.4-210.3,234-235.5,9.5-12.3,42.5-44.8,37.2-62.6-5.4-18.2-9.3-5.7-23.2-13.2-11.1-5.9-23.2,5.5-31.9-8.7s16.6-38.8,23.9-48.2C170,98.6,249.4,35.1,203.8,16,169.1,1.5,106.6,91.2,87.3,110"/>
    <path class="cls-16" d="M828.5,50.4c-50.2,8.9-83.3,62.3-109.9,100.8-17.2,24.9-56.9,77-.6,63.6,42.1-10,67.4-91.6,106-93.8,49.6-2.8-29.9,79.1-43.6,91.5-24.2,21.9-79.2,60.7-87.9,96.5-13.8,56.3,55.7-.2,73.1-18.6,41.6-43.9,74.1-93.2,87.4-152.7C858.2,114,874.3,42.2,828.5,50.4Z"/>
    <path class="cls-17" d="M107.7,600.3c-4.2,44.2,49.8,38,81.6,14.9-72.6,52.6,35.3,54.1,74.1,37.1,29.9-13.1,64.6-37.1,77.1-69,5-12.8,7.4-29.2,4.5-42.8-1-4.7-21.2-36.5-21.2-36.5.3-35.6,72.4-80.7,7.4-105.4-64.1-24.5-138.3,62.4-155,114.1C161.3,549.2,111.9,556.1,107.7,600.3Z"/>
    <path class="cls-18" d="M817.2,488c-29.7,0-107.5,6.6-115.8,46.9-12.5,60.9,72.6,1.2,71.4-.1.3.3-126.4,90.8-34.4,84.1,53.7-3.9,188.1-144.4,88.7-144.4"/>
    <path class="cls-19" d="M410.5,651.1c27.1,14,67.7-45.2,81-60.9,12.3-14.6,54.78-76.23,62.8-71.6s-67,117.5-50.1,123.3c19.9,6.8,55.3-48.9,65.1-62.6,27-37.9,27-69.5,37.2-113.3,4.5-19.3,28.4-56.6,14-73.1C532.26,322.61,342.4,616,410.5,651.1Z"/>
    <path class="cls-20" d="M450.7-38.4C385.2.9,312.3,47.6,270.9,113.9c-36.5,58.3-3.7,100.9,52.9,53.8,8.2-6.8,35.5-46.7,43.4-20.3,3.9,13.3-34.3,44-42.1,51.8-15.9,15.9-100.3,94.4-30.4,85,29.7-4,57.7-44.8,77.1-63.3,23.5-22.6,58.8-41.6,73.6-71.9,33.9-69.3-42.5-46.7-80-48.4-26.3-1.2-36.4,4.8-21.2-22.7,10.4-19,47.6-33,65.5-43.2,18.1-10.3,44.8-19.8,57.5-37.2C480-20.5,485.7-59.4,450.7-38.4Z"/>
    <path class="cls-4" d="M724.2,174.7c-14.2,26.6-53.5,42.5-61.7,71.8-8.7,31.2,10.9,43.2,40.5,26.2,27.4-15.8,22.9-43.8,35.9-68.3,12-22.7,34.6-32.9,35.3-59.9,1.7-62.3-79.1-51.8-98.9-8.1-30.4,67,33.4,17.4,51.2,26.6C728.5,167.1,727.7,171,724.2,174.7Z"/>
    <path class="cls-21" d="M200.9,227.3c-27.4-3.8-60.3-12.1-87.3-1.9-16.8,6.3-66.9,49.1-50.7,73.5,9.4,14.1,77-2.9,76.9-2.8-8.3,33.1-94.2,33.5-112.1,71.3C-12,451.2,121.1,397,137,396c12.5-.8,22.3,15.5,41.6,11.1,15.1-3.4,32.8-16.7,36.9-32.5,8.9-35.1-25.2-26.1-29-48.8C182.1,298.9,301.3,241.1,200.9,227.3Z"/>
    <path class="cls-22" d="M810.2,356.2c-3,7.7-77.9,51.6-15.9,52.4,16.5.2,30.3-15.5,33-31.4C828.4,371.2,819.4,332.3,810.2,356.2Z"/>
    <path class="cls-22" d="M734.3,453.1c-41.6-26.5-101,9-57.2,51.9C723.7,550.6,786.3,486.3,734.3,453.1Z"/>
    <path class="cls-22" d="M644.7,619.7c34.8,26.5,77.6,8.7,38.5-38.5C656.2,548.7,620.5,601.3,644.7,619.7Z"/>
    <path class="cls-22" d="M606,543c-26.4-21-124.9,27.1-73.6,65.6C575.2,640.7,640.2,570.2,606,543Z"/>
    <path class="cls-23" d="M806.3,174.9c.6-11.6-123.8,24.2-58.5,66.2,16.6,10.7,45.4,3.1,58.6-9.4C839.1,200.7,804.7,204,806.3,174.9Z"/>
    <path class="cls-24" d="M-26.4,410.7c-13.28,23-81.4,118.5,7,121.9,64.2,2.4,72.8-47.3,104.5-91.5,20.4-28.4,24-28.3,10.2-55.3-8.4-16.4-13.6-4.1-19.1-26.5-3.2-13,15.7-28.1,7.7-42.2C73.2,298,34.4,306.6,19.8,315-5.2,329.5-13.12,387.69-26.4,410.7Z"/>
    <path class="cls-25" d="M318.7,535.2c-31.4,0-53.7,45.6-11.9,45.6-21.4,0-14.4,32.2,11.1,27.8-7.8,24.6,23,35.5,23,31.7,0,21.4,29.3,18,41.4,12,11.4-5.6,23.3-36.3,15.7-31.9,10.2-5.9,29.8,10.9,42.2-19.4,6.9-16.8-2-36.6-11.3-50.8,31.1,8.2,41.2-90,26.7-105.1-29.3-30.5-108.6-1.8-70.7,20.6-16.1-1.2-68.1,10.7-44,32.9-7.7.7-67.9,21.7-34.9,34.9"/>
    <path class="cls-26" d="M50.1,467.1c21.8,22.6,77.4,29.4,10.7,43.6-17.6,3.8-56.3-4-68.9,12.9-20,26.8,21,21.4,37.7,23.7C117,559.2,22,589,5.4,621c-27.8,53.7,84.5,1.7,107.7-9.1,18.1-8.5,52.4-20.9,62.6-40.6,16.4-31.6-.4-28.9-19.6-45.9-23.1-20.3-29.3-15.6-11-48.6,12.3-22.3,24.8-31.9,44.7-44.1,31.1-19.1,55.76-46.51,11.5-61.8S5,404.92,50.1,467.1Z"/>
    <path class="cls-2" d="M660.8,148.4c.8,24.8,39.7,2.8,44.9,20.2,8.7,28.7-187.7,69.2-75.1,81.8,24.6,2.7,38.6-7.4,30.6,16.1-5.7,17-60.5,37.8-75.6,48.5-14.3,10.1-51.2,30.6-31.4,46.7,18.6,15,92.7-34.5,102.9-41.3,20.1-13.3,87.5-52.8,77.8-85C726.1,206.1,673.2,218,652,218c19,0,101-36.5,106.7-53.1,12.2-35.8-41.5-5.4-45.2-20.2-2.3-9.4,29.5-14,34.9-28.9S660.3,131.8,660.8,148.4Z"/>
    <path class="cls-27" d="M298.8,240.2c2.3,10.6,19.2,22.8,15.1,32.2-5.7,12.7-32.6,2.8-41.4,10.1-42.4,35.6,16.3,75.5,12.6,115.9-.5,5.1-40.9,69.1-12.7,66.4,18.5-1.8,27.6-52.2,38.5-64,58.9-64,51.8,94.7,72.1,76.1,12.8-11.7-2.2-91.1-3.9-105.8-1.2-10.7-16.7-53.7-9.7-62.6,16.6-21.1,26.8,4.4,46.4,4.4-39.1,0,11.3-91.9,20.8-103.6,13.6-16.7,70.6-70.1,36.1-87C441.5,106.9,290.8,203.5,298.8,240.2Z"/>
    <path class="cls-28" d="M688.3-24.9C691-37.2,635.2-2.1,622,6.4,605.5,17,557.5,40.6,581.9,55.9c11.9,7.5,73-12.8,82.1-19.7C685.9,19.7,682.5,1.6,688.3-24.9Z"/>
    <path class="cls-28" d="M388.1,15.7c-11.4,11.8-12.2,31.6-23.7,45-7.2,8.4-32,15.2-33.8,28.7-4.7,33.3,49.8,39.3,72,29.2C426,107.9,460.1,53.8,460,27.9,459.7-15.2,415.1-12.4,388.1,15.7Z"/>
    <path class="cls-29" d="M496.7,208c-38.8-30.7-102.5,64.7-120.1,88.3-10.8,14.6-35.7,41.3-30.2,62.1,3.5,13.2,20.2,23.9,34.4,21,33.3-6.8.1-11,21-24.6,10.8-7,48.7-7.7,54.2-18.6,9.1-18-31.7-35.9-25.6-54,5.7-17,50.5.2,64.6-8.3C519.8,259,517.6,224.1,496.7,208Z"/>
    <path class="cls-6" d="M537.6,351.2c-28.9-8.3-56.6-4-80.7,14.4-12.2,9.3-18.6,19.5-27,31.6-2.7,3.9,7.1,20.8,2.3,23.4-11.1,5.9-36.9-11.9-40.8,10.2-4.7,26.8,37.2,14,48.3,25.1,11.6,11.6-62.7,50.6-6.3,63.6,26.1,6,53.6-24.8,68-41.8,18-21.2,13-20.6,37.7-34,17-9.2,33.8,3.6,43.9-20.1C594.8,395.9,561.1,358,537.6,351.2Z"/>
    <path class="cls-30" d="M179.5,630.4c44.7-19.9,29.9-129.7,38.9-168.3,5.9-25.3,33.3-63.6,36.5-16.2,1.5,22.7-16.6,32.3-.9,57,10,15.8,41,19,44.9,35.9,8.3,36.4-64.6,55.3-64.6,88.8"/>
    <path class="cls-31" d="M57.9,103.2c-47.2,37.5,3.1,96.6,48.6,62.5C160.3,125.2,98.5,70.9,57.9,103.2Z"/>
  </g>
</svg>
